<?xml version="1.0" encoding="utf-8"?>
<!-- Generator: Adobe Illustrator 16.2.1, SVG Export Plug-In . SVG Version: 6.00 Build 0)  -->
<!DOCTYPE svg PUBLIC "-//W3C//DTD SVG 1.1//EN" "http://www.w3.org/Graphics/SVG/1.1/DTD/svg11.dtd">
<svg version="1.1" id="Layer_1" xmlns="http://www.w3.org/2000/svg" xmlns:xlink="http://www.w3.org/1999/xlink" x="0px" y="0px"
	 width="144px" height="144px" viewBox="0 0 144 144" enable-background="new 0 0 144 144" xml:space="preserve">
<path fill="#828383" d="M72.219,1.594c-39.092,0-70.783,31.69-70.783,70.783c0,39.093,31.691,70.782,70.783,70.782
	c39.093,0,70.781-31.688,70.781-70.782C143,33.284,111.312,1.594,72.219,1.594z M98.593,87.646c0.765,0.767,0.765,2.008,0,2.774
	l-8.33,8.33c-0.767,0.765-2.01,0.765-2.774,0l-15.271-15.27l-15.269,15.27c-0.767,0.765-2.01,0.765-2.776,0l-8.329-8.33
	c-0.766-0.767-0.766-2.008,0-2.774l15.269-15.27L45.843,57.106c-0.766-0.765-0.766-2.009,0-2.775l8.329-8.33
	c0.766-0.766,2.009-0.766,2.776,0l15.269,15.27l15.271-15.27c0.765-0.766,2.008-0.766,2.774,0l8.33,8.33
	c0.765,0.766,0.765,2.01,0,2.775L83.322,72.376L98.593,87.646z"/>
</svg>
