<?xml version="1.0" encoding="utf-8"?>
<!-- Generator: Adobe Illustrator 16.2.1, SVG Export Plug-In . SVG Version: 6.00 Build 0)  -->
<!DOCTYPE svg PUBLIC "-//W3C//DTD SVG 1.1//EN" "http://www.w3.org/Graphics/SVG/1.1/DTD/svg11.dtd">
<svg version="1.1" id="Layer_1" xmlns="http://www.w3.org/2000/svg" xmlns:xlink="http://www.w3.org/1999/xlink" x="0px" y="0px"
	 width="300px" height="300px" viewBox="0 0 300 300" enable-background="new 0 0 300 300" xml:space="preserve">
<path fill="#999999" d="M220.553,244.382c-11.662,9.981-26.948,16.181-45.875,18.611l0.044,34.813
	c-0.006,0.597-0.793,1.092-1.779,1.086l-38.893,0.069c-0.977-0.008-1.782-0.498-1.777-1.104l-0.047-35.272
	c-17.872-2.639-32.673-8.531-44.363-17.725c-16.422-12.914-24.639-30.671-24.675-53.313l43.378-0.053
	c1.414,9.943,4.204,17.364,8.322,22.275c7.554,8.952,20.458,13.402,38.753,13.368c10.942-0.001,19.823-1.205,26.646-3.578
	c12.961-4.521,19.424-12.956,19.401-25.255c-0.014-7.193-3.188-12.728-9.534-16.661c-6.374-3.82-16.425-7.207-30.221-10.137
	l-23.542-5.134c-23.163-5.076-39.066-10.623-47.733-16.611c-14.675-10.023-22.018-25.697-22.047-47.047
	c-0.026-19.475,7.114-35.666,21.44-48.578c10.803-9.723,25.418-15.79,43.867-18.208l-0.052-34.643
	c0.004-0.606,0.792-1.102,1.77-1.103l38.902-0.053c0.993-0.001,1.782,0.489,1.771,1.087l0.06,35.727
	c13.507,2.75,25.598,8.034,36.248,15.918c16.403,12.129,25.003,29.751,25.853,52.861l-43.688,0.067
	c-0.834-13.081-6.688-22.368-17.581-27.862c-7.271-3.634-16.3-5.437-27.096-5.436c-12,0.025-21.578,2.396-28.724,7.134
	c-7.161,4.724-10.733,11.323-10.714,19.777c0.007,7.773,3.552,13.585,10.619,17.402c4.539,2.556,14.165,5.551,28.896,8.972
	l38.188,8.936c16.729,3.929,29.282,9.168,37.638,15.751c12.979,10.213,19.481,25.008,19.5,44.394
	C243.554,214.724,235.886,231.249,220.553,244.382z"/>
</svg>
