<?xml version="1.0" encoding="utf-8"?>
<!-- Generated by IcoMoon.io -->
<!DOCTYPE svg PUBLIC "-//W3C//DTD SVG 1.1//EN" "http://www.w3.org/Graphics/SVG/1.1/DTD/svg11.dtd">
<svg version="1.1" xmlns="http://www.w3.org/2000/svg" xmlns:xlink="http://www.w3.org/1999/xlink" width="1088" height="1024" viewBox="0 0 1088 1024">
<g>
</g>
	<path d="M1081.332 436.75c-1.042-3.455-2.985-7.304-4.712-10.793-0.357-0.863-1.727-3.453-1.727-3.453-0.143-0.359-0.718-0.898-0.718-0.898-0.649-1.188-1.513-2.267-2.229-3.491-2.447-3.094-4.677-6.402-7.844-9.030l-0.141-0.539c0 0-0.719-0.323-0.719-0.682-15.684-16.154-37.414-33.204-37.414-33.204l-432.564-354.478c-13.742-12.879-31.514-20.181-50.148-20.181-18.78 0-36.514 7.302-49.934 20.181l-433.44 354.478c0 0-17.915 14.39-32.7 29.715-2.086 1.403-3.653 2.95-5.216 4.714-4.353 4.353-7.663 9.393-10.973 14.426-1.043 1.403-1.727 2.086-2.265 3.669 0 0 0 0.359-0.163 0.721-1.204 2.767-2.788 5.9-4.010 9.030-2.249 7.302-3.814 14.963-3.814 23.131v491.917c0 12.879 3.471 24.713 9.389 35.326 12.699 21.91 36.191 36.693 63.173 36.693h939.64c28.349 0 52.882-15.973 64.682-39.822 5.038-9.605 7.842-20.541 7.842-32.199v-491.917c-0.002-8.167-1.583-15.83-3.996-23.313zM1002.366 922.55c0 5.864-3.092 11.332-8.093 14.355-2.699 1.691-5.718 2.481-8.778 2.481-2.624 0-882.423 0.647-885.085 0.647-3.040 0-6.079-0.829-8.762-2.483-5.018-3.057-8.075-8.524-8.075-14.351v-451.23c0-5.864 3.040-11.297 8.044-14.355 5.018-3.094 11.209-3.346 16.439-0.647l436.786 224.193 432.921-223.547c5.18-2.699 11.437-2.519 16.475 0.575 5.035 3.023 8.127 8.492 8.127 14.391v449.971z"></path>
</svg>
