<?xml version="1.0" encoding="utf-8"?>
<!-- Generator: Adobe Illustrator 16.2.1, SVG Export Plug-In . SVG Version: 6.00 Build 0)  -->
<!DOCTYPE svg PUBLIC "-//W3C//DTD SVG 1.1//EN" "http://www.w3.org/Graphics/SVG/1.1/DTD/svg11.dtd">
<svg version="1.1" id="Layer_1" xmlns="http://www.w3.org/2000/svg" xmlns:xlink="http://www.w3.org/1999/xlink" x="0px" y="0px"
	 width="600px" height="600px" viewBox="0 0 600 600" enable-background="new 0 0 600 600" xml:space="preserve">
<path d="M300,0C134.314,0,0,134.314,0,300s134.314,300,300,300s300-134.314,300-300S465.686,0,300,0z M385.352,314.691h-67.699
	v181.156h-68.975V314.691h-47.902v-65.223h47.902c0,0,0-26.74,0-55.727c0-43.767,28.297-83.986,93.495-83.986
	c26.408,0,45.937,2.527,45.937,2.527l-1.544,60.921c0,0-19.912-0.191-41.636-0.191c-23.523,0-27.276,10.824-27.276,28.821
	c0,2.221,0,3.012,0,3.038c0,5.055,0,17.295,0,44.597h70.775L385.352,314.691z"/>
</svg>
