<?xml version="1.0" encoding="utf-8"?>
<!-- Generator: Adobe Illustrator 16.2.1, SVG Export Plug-In . SVG Version: 6.00 Build 0)  -->
<!DOCTYPE svg PUBLIC "-//W3C//DTD SVG 1.1//EN" "http://www.w3.org/Graphics/SVG/1.1/DTD/svg11.dtd">
<svg version="1.1" id="Layer_1" xmlns="http://www.w3.org/2000/svg" xmlns:xlink="http://www.w3.org/1999/xlink" x="0px" y="0px"
	 width="600px" height="600px" viewBox="0 0 600 600" enable-background="new 0 0 600 600" xml:space="preserve">
<path d="M300,0C134.314,0,0,134.314,0,300s134.314,300,300,300s300-134.314,300-300S465.686,0,300,0z M437.069,231.751
	c0.141,3.039,0.218,6.076,0.218,9.152c0,93.495-71.172,201.298-201.286,201.298c-39.963,0-77.144-11.718-108.454-31.795
	c5.527,0.651,11.169,0.982,16.874,0.982c33.161,0,63.667-11.309,87.866-30.275c-30.965-0.574-57.08-21.035-66.09-49.141
	c4.326,0.842,8.755,1.276,13.312,1.276c6.446,0,12.713-0.868,18.634-2.477c-32.355-6.51-56.747-35.1-56.747-69.384
	c0-0.293,0-0.587,0-0.881c9.547,5.298,20.448,8.489,32.05,8.846c-18.98-12.688-31.476-34.335-31.476-58.893
	c0-12.955,3.484-25.106,9.586-35.56c34.882,42.81,87.023,70.967,145.8,73.915c-1.199-5.169-1.812-10.581-1.812-16.12
	c0-39.057,31.667-70.737,70.75-70.737c20.333,0,38.726,8.578,51.616,22.337c16.134-3.166,31.271-9.062,44.942-17.167
	c-5.271,16.528-16.505,30.39-31.106,39.146c14.309-1.71,27.94-5.514,40.628-11.156C462.902,209.312,450.904,221.77,437.069,231.751z
	"/>
</svg>
