<?xml version="1.0" encoding="utf-8"?>
<!-- Generator: Adobe Illustrator 16.2.1, SVG Export Plug-In . SVG Version: 6.00 Build 0)  -->
<!DOCTYPE svg PUBLIC "-//W3C//DTD SVG 1.1//EN" "http://www.w3.org/Graphics/SVG/1.1/DTD/svg11.dtd">
<svg version="1.1" id="Layer_1" xmlns="http://www.w3.org/2000/svg" xmlns:xlink="http://www.w3.org/1999/xlink" x="0px" y="0px"
	 width="600px" height="600px" viewBox="0 0 600 600" enable-background="new 0 0 600 600" xml:space="preserve">
<g>
	<path d="M218.814,164.496c-21.775,5.942-32.722,35.491-24.424,66.004c8.307,30.522,32.696,50.489,54.505,44.552
		c21.804-5.932,32.746-35.492,24.438-66.024C265.042,178.515,240.638,158.583,218.814,164.496z"/>
	<path d="M233.24,346.489c-36.591,2.482-64.802,26.124-62.98,52.834c1.789,26.691,32.937,46.315,69.528,43.833
		c36.63-2.472,64.832-26.112,63.047-52.814C301.013,363.632,269.855,344.007,233.24,346.489z"/>
	<path d="M300,0C134.314,0,0,134.314,0,300s134.314,300,300,300s300-134.314,300-300S465.686,0,300,0z M316.445,220.858
		c0,48.543-45.442,54.535-45.442,75.196c0,20.655,60.296,37.182,60.296,88.403c0,85.508-105.742,80.698-105.742,80.698
		s-91.43,3.304-91.43-65.56c0-68.834,103.734-66.097,109.061-66.097c-1.31-15.754-11.83-13.134-11.83-20.925
		c0-7.783,0-19.287,0-19.287s-78.514,8.824-78.514-67.192c0-76.007,89.797-78.211,89.797-78.211s81.642,0,88.659,0
		c0,13.502-40.471,8.743-40.471,15.979C313.757,174.19,316.445,191.744,316.445,220.858z M497.681,227.778h-61.737v61.674h-18.159
		v-61.674h-61.679v-18.179h61.679v-61.733h18.159v61.733h61.737V227.778z"/>
</g>
</svg>
