<?xml version="1.0" encoding="utf-8"?>
<!-- Generator: Adobe Illustrator 16.2.1, SVG Export Plug-In . SVG Version: 6.00 Build 0)  -->
<!DOCTYPE svg PUBLIC "-//W3C//DTD SVG 1.1//EN" "http://www.w3.org/Graphics/SVG/1.1/DTD/svg11.dtd">
<svg version="1.1" id="Layer_1" xmlns="http://www.w3.org/2000/svg" xmlns:xlink="http://www.w3.org/1999/xlink" x="0px" y="0px"
	 width="500px" height="500px" viewBox="0 0 500 500" enable-background="new 0 0 500 500" xml:space="preserve">
<g>
	<path fill-rule="evenodd" clip-rule="evenodd" fill="#6E6E6E" d="M184.91,228.093c-4.259-0.188-8.219,3.487-8.414,7.83
		c-0.189,4.213,3.648,8.136,8.005,8.18c4.194,0.047,7.986-3.602,8.07-7.765C192.655,232.19,189.026,228.282,184.91,228.093z"/>
	<path fill-rule="evenodd" clip-rule="evenodd" fill="#6E6E6E" d="M234.274,273.75c-4.175-0.077-8.221,3.915-8.207,8.096
		c0.026,4.033,3.94,7.993,7.946,8.052c4.15,0.046,8.206-3.98,8.206-8.136C242.241,277.725,238.353,273.815,234.274,273.75z"/>
	<path fill-rule="evenodd" clip-rule="evenodd" fill="#6E6E6E" d="M262.147,104.225c-9.095-2.109-18.25-2.195-27.4-0.454
		c-8.459,1.609-9.342,2.74-9.329,11.277c0,0.417,0.038,0.844,0,1.266c-0.195,2.149,0.635,3.013,2.917,2.961
		c6.25-0.123,12.504-0.04,18.755-0.04c6.467,0,12.94,0.053,19.4-0.058c0.968-0.013,2.495-0.579,2.786-1.272
		C272.002,111.257,269.089,105.842,262.147,104.225z"/>
	<path fill-rule="evenodd" clip-rule="evenodd" fill="#6E6E6E" d="M143.383,273.75c-4.136-0.161-8.278,3.778-8.364,7.961
		c-0.077,4.116,4.013,8.214,8.155,8.187c4.09-0.026,7.928-3.862,7.987-7.967C151.225,277.839,147.486,273.905,143.383,273.75z"/>
	<path fill-rule="evenodd" clip-rule="evenodd" fill="#6E6E6E" d="M331.901,273.757c-4.158-0.123-8.248,3.767-8.364,7.967
		c-0.124,3.973,3.733,8.011,7.791,8.174c4.172,0.162,8.265-3.74,8.345-7.939C339.748,277.933,335.911,273.886,331.901,273.757z"/>
	<path fill-rule="evenodd" clip-rule="evenodd" fill="#6E6E6E" d="M363.962,228.048c-4.325-0.007-8.021,3.728-8.06,8.136
		c-0.033,4.24,3.558,7.876,7.822,7.914c4.383,0.053,8.135-3.661,8.117-8.012C371.824,231.982,367.971,228.055,363.962,228.048z"/>
	<path fill-rule="evenodd" clip-rule="evenodd" fill="#6E6E6E" d="M280.08,228.016c-4.168-0.13-8.159,3.799-8.193,8.058
		c-0.031,4.2,3.643,7.959,7.811,8.024c4.296,0.059,8.246-3.739,8.304-7.966C288.053,232.171,284.116,228.145,280.08,228.016z"/>
	<path fill-rule="evenodd" clip-rule="evenodd" fill="#6E6E6E" d="M249.188,0.725c-137.699,0-249.32,111.622-249.32,249.32
		c0,137.695,111.622,249.32,249.32,249.32c137.695,0,249.319-111.625,249.319-249.32C498.508,112.347,386.884,0.725,249.188,0.725z
		 M370.615,314.545c-13.499,35.143-37.365,60.524-71.837,75.569c-23.196,10.121-47.511,12.776-72.523,8.62
		c-34.223-5.688-61.855-22.503-83.029-49.786c-14.33-18.453-22.789-39.507-25.893-62.72c-0.389-2.928,0.247-4.914,2.064-7.104
		c7.714-9.316,15.271-18.763,22.886-28.164c0.65-0.799,1.351-1.572,2.312-2.702c13.362,21.727,26.542,43.157,40.034,65.085
		c17.095-21.052,33.847-41.697,51.019-62.845c12.908,21.071,25.595,41.748,38.529,62.831c18.456-21.623,36.56-42.833,54.962-64.401
		c3.662,5.363,7.178,10.464,10.667,15.6c10.029,14.732,19.996,29.499,30.093,44.189C371.252,310.675,371.49,312.29,370.615,314.545z
		 M377.341,286.788c-15.886-22.205-31.464-43.964-47.324-66.142c-18.537,19.563-36.612,38.658-54.987,58.078
		c-12.608-18.367-25.049-36.489-37.878-55.181c-18.413,18.49-36.489,36.638-54.864,55.09c-12.076-19.42-23.932-38.477-36.105-58.032
		c-9.363,10.025-18.511,19.808-27.646,29.593c-0.209-0.085-0.417-0.156-0.624-0.241c0.487-2.947,0.779-5.938,1.46-8.835
		c8.474-35.762,28.147-63.622,59.201-83.295c11.27-7.128,23.446-12.296,36.418-15.433c2.499-0.61,3.458-1.598,3.434-4.247
		c-0.156-10.291,0.012-20.575-0.149-30.86c-0.039-3.174,0.979-5.603,3.855-6.603c4.564-1.592,9.221-3.266,13.973-3.941
		c11.537-1.649,23.055-1.395,34.184,2.721c5.317,1.98,6.201,3.279,6.232,8.902c0.066,9.861,0.117,19.73,0,29.593
		c-0.024,2.532,0.624,3.714,3.254,4.375c28.248,7.232,51.642,22.25,69.946,44.884c15.752,19.485,25.137,41.78,28.005,66.778
		C378.962,264.752,379.01,275.465,377.341,286.788z"/>
</g>
</svg>
