<?xml version="1.0" encoding="utf-8"?>
<!-- Generator: Adobe Illustrator 16.2.1, SVG Export Plug-In . SVG Version: 6.00 Build 0)  -->
<!DOCTYPE svg PUBLIC "-//W3C//DTD SVG 1.1//EN" "http://www.w3.org/Graphics/SVG/1.1/DTD/svg11.dtd">
<svg version="1.1" id="Layer_1" xmlns="http://www.w3.org/2000/svg" xmlns:xlink="http://www.w3.org/1999/xlink" x="0px" y="0px"
	 width="600px" height="600px" viewBox="0 0 600 600" enable-background="new 0 0 600 600" xml:space="preserve">
<g>
	<path d="M331.768,261.024v-0.747c-0.162,0.249-0.327,0.501-0.484,0.747H331.768z"/>
	<path d="M300,0C134.314,0,0,134.314,0,300s134.314,300,300,300s300-134.314,300-300S465.686,0,300,0z M218.244,448.989h-73.066
		V229.143h73.066V448.989z M181.711,199.134h-0.471c-24.517,0-40.381-16.903-40.381-37.998c0-21.567,16.336-37.985,41.35-37.985
		c24.988,0,40.368,16.418,40.853,37.985C223.061,182.231,207.196,199.134,181.711,199.134z M481.76,448.989h-73.066V331.375
		c0-29.549-10.588-49.72-37.029-49.72c-20.184,0-32.213,13.609-37.488,26.734c-1.938,4.688-2.408,11.265-2.408,17.826v122.774
		h-73.079c0,0,0.956-199.229,0-219.847h73.079v31.135c9.715-14.972,27.086-36.309,65.854-36.309
		c48.077,0,84.139,31.436,84.139,98.958V448.989z"/>
</g>
</svg>
