<?xml version="1.0" encoding="utf-8"?>
<!-- Generator: Adobe Illustrator 16.2.1, SVG Export Plug-In . SVG Version: 6.00 Build 0)  -->
<!DOCTYPE svg PUBLIC "-//W3C//DTD SVG 1.1//EN" "http://www.w3.org/Graphics/SVG/1.1/DTD/svg11.dtd">
<svg version="1.1" id="Layer_1" xmlns="http://www.w3.org/2000/svg" xmlns:xlink="http://www.w3.org/1999/xlink" x="0px" y="0px"
	 width="500px" height="500px" viewBox="0 0 500 500" enable-background="new 0 0 500 500" xml:space="preserve">
<g>
	<polygon fill="#6E6E6E" points="280.699,379.761 280.699,379.767 280.699,379.761 280.699,379.754 	"/>
	<path fill="#6E6E6E" d="M249.962,0.203c-138.09,0-250.038,111.929-250.038,250c0,138.071,111.947,250,250.038,250
		c138.089,0,250.038-111.929,250.038-250C500,112.132,388.052,0.203,249.962,0.203z M416.621,264.57
		c-1.243,6.19-6.437,7.875-12.397,9.214c-25.919,5.841-46.462,19.212-63.492,39.231c-14.326,16.846-30.724,32.058-47.229,47.032
		C287.088,365.869,281,371.616,281,379.761c0,0.031,0,0.081,0,0.112c0,0.301-0.143,0.639-0.137,0.995
		c0.01,0.745-0.054,0.951-0.047,2.028c0.099,15.362,1.315,33.104,2.054,45.104c-35.89,0-71.793,0-108.512,0
		c0.726-12,1.498-19.588,1.986-29.04c1.736-33.542,2.166-5.581,3.53-39.134c0.185-4.564-0.958-9.524-3.103-13.587
		c-15.357-29.065-23.49-59.709-25.14-92.235c-0.651-12.909-8.009-23.601-14.244-34.7c-8.858-15.782-17.196-31.826-25.078-48.071
		c-2.182-4.501-2.833-10.12-2.523-15.146c0.182-3.004,2.999-7.397,5.691-8.324c3.174-1.089,7.967,0.069,11.164,1.797
		c2.611,1.402,4.291,4.896,5.717,7.769c9.878,19.863,22.028,38.262,37.339,54.719c3.256,3.5,6.502,5.214,11.161,3.355
		c4.809-1.916,6.625-5.578,6.29-10.411c-1.14-16.651-6.462-82.764-7.915-99.171c-0.645-7.268,2.768-13.096,8.777-15.387
		c10.041-3.812,17.226-0.25,18.547,10.229c3.738,29.641,6.967,59.338,10.373,89.017c0.196,1.722-0.286,3.625,0.329,5.152
		c0.775,1.909,2.36,3.512,3.595,5.246c1.585-1.74,4.369-3.355,4.571-5.227l0.403-3.9c2.116-20.683,8.735-88.179,11.447-110.571
		c0.752-6.235,5.964-8.282,11.655-8.971c8.11-0.995,13.214,1.083,14.917,6.93c1.244,4.269,1.576,8.996,1.24,13.446
		c-2.422,31.989-5.144,63.958-7.699,95.935c-0.251,3.193-0.029,6.423-0.029,9.966c6.651,1.358,10.672-0.689,13.064-5.659
		c12.092-25.146,24.128-50.318,36.22-75.464c2.074-4.313,3.923-8.795,6.58-12.764c3.34-5.015,8.208-7.218,14.565-5.015
		c7.196,2.492,10.92,6.842,10.035,13.572c-0.7,5.309-2.215,10.604-4.041,15.682c-11.06,30.667-22.562,61.191-33.396,91.935
		c-5.841,16.558-0.629,32.139,7.254,46.856c3.854,7.192,9.536,9.227,17.685,6.71c5.192-1.608,10.344-4.263,14.608-7.543
		c12.866-9.903,26.638-17.866,43.044-20.758c9.142-1.609,18.059-0.789,25.896,4.545C414.086,253.333,417.923,258.065,416.621,264.57
		z"/>
</g>
</svg>
