<?xml version="1.0" encoding="utf-8"?>
<!-- Generator: Adobe Illustrator 16.2.1, SVG Export Plug-In . SVG Version: 6.00 Build 0)  -->
<!DOCTYPE svg PUBLIC "-//W3C//DTD SVG 1.1//EN" "http://www.w3.org/Graphics/SVG/1.1/DTD/svg11.dtd">
<svg version="1.1" id="Layer_1" xmlns="http://www.w3.org/2000/svg" xmlns:xlink="http://www.w3.org/1999/xlink" x="0px" y="0px"
	 width="500px" height="500px" viewBox="0 0 500 500" enable-background="new 0 0 500 500" xml:space="preserve">
<path fill="#404040" d="M366.385,299.77c-33.308,33.308-33.308,66.615-66.616,66.615c-33.308,0-66.615-33.308-99.922-66.615
	c-33.308-33.308-66.615-66.615-66.615-99.923c0-33.308,33.307-33.308,66.615-66.615C233.154,99.923,133.231,0,99.923,0
	C66.615,0,0,99.923,0,99.923c0,66.615,68.437,201.66,133.231,266.461c64.793,64.802,199.846,133.23,266.461,133.23
	c0,0,99.922-66.614,99.922-99.922C499.614,366.385,399.692,266.462,366.385,299.77z"/>
</svg>
