<?xml version="1.0" encoding="utf-8"?>
<!-- Generator: Adobe Illustrator 16.2.1, SVG Export Plug-In . SVG Version: 6.00 Build 0)  -->
<!DOCTYPE svg PUBLIC "-//W3C//DTD SVG 1.1//EN" "http://www.w3.org/Graphics/SVG/1.1/DTD/svg11.dtd">
<svg version="1.1" id="Layer_1" xmlns="http://www.w3.org/2000/svg" xmlns:xlink="http://www.w3.org/1999/xlink" x="0px" y="0px"
	 width="500px" height="500px" viewBox="0 0 500 500" enable-background="new 0 0 500 500" xml:space="preserve">
<path fill-rule="evenodd" clip-rule="evenodd" fill="#6E6E6E" d="M249,0C111.479,0,0,111.479,0,249s111.479,249,249,249
	s249-111.479,249-249S386.521,0,249,0z M244.72,335.158c-8.495,0.039-17.119,0.739-25.425,2.393
	c-9.629,1.926-17.028,7.204-21.288,16.853c-8.611,19.505-17.754,38.776-26.884,58.048c-6.102,12.865-14.285,16.522-27.883,12.477
	c-10.077-2.989-18.96-8.196-26.002-16.14c-8.125-9.156-8.702-17.521-1.731-27.462c12.619-18,25.237-36.001,38.134-53.794
	c5.382-7.431,6.608-15.517,3.975-23.759c-2.717-8.501-6.517-16.697-10.381-24.783c-5.252-11.023-11.011-21.82-16.555-32.714
	c0.512-0.117,1.031-0.227,1.537-0.343c49.171,28.511,98.329,57.03,147.805,85.723C268.57,334.847,256.703,335.087,244.72,335.158z
	 M357.802,384.77c-14.493,3.684-29.439-5.181-33.22-19.699c-3.812-14.668,5.188-29.828,19.92-33.524
	c14.538-3.657,29.387,5.175,33.187,19.738C381.541,366.03,372.645,380.996,357.802,384.77z M368.157,263.097
	c-11.893,23.85-28.979,42.745-52.602,55.584c-3.748,2.036-6.4,2.374-10.174,0.176c-57.568-33.551-115.208-66.965-172.88-100.327
	c-3.165-1.835-4.377-3.748-4.584-7.677c-3.145-59.702,48.03-116.855,94.6-134.674c64.662-24.744,144.291,19.583,159.82,83.428
	C390.917,195.919,384.562,230.208,368.157,263.097z"/>
</svg>
