<?xml version="1.0" encoding="utf-8"?>
<!-- Generator: Adobe Illustrator 16.2.1, SVG Export Plug-In . SVG Version: 6.00 Build 0)  -->
<!DOCTYPE svg PUBLIC "-//W3C//DTD SVG 1.1//EN" "http://www.w3.org/Graphics/SVG/1.1/DTD/svg11.dtd">
<svg version="1.1" id="Layer_1" xmlns="http://www.w3.org/2000/svg" xmlns:xlink="http://www.w3.org/1999/xlink" x="0px" y="0px"
	 width="600px" height="600px" viewBox="0 0 600 600" enable-background="new 0 0 600 600" xml:space="preserve">
<path d="M300.012,0C134.333,0,0,134.327,0,300.005c0,122.843,73.87,228.382,179.582,274.784c-0.841-20.943-0.153-46.102,5.22-68.893
	c5.755-24.355,38.603-163.469,38.603-163.469s-9.587-19.155-9.587-47.47c0-44.459,25.756-77.664,57.866-77.664
	c27.272,0,40.474,20.498,40.474,45.045c0,27.43-17.493,68.458-26.507,106.47c-7.512,31.823,15.953,57.77,47.362,57.77
	c56.834,0,95.106-72.997,95.106-159.497c0-65.753-44.281-114.961-124.823-114.961c-91.006,0-147.701,67.86-147.701,143.665
	c0,26.139,7.716,44.568,19.785,58.847c5.539,6.557,6.315,9.186,4.304,16.717c-1.426,5.52-4.736,18.811-6.099,24.081
	c-2.012,7.589-8.161,10.313-15.036,7.5c-41.9-17.111-61.431-63.004-61.431-114.606c0-85.226,71.871-187.417,214.403-187.417
	c114.548,0,189.933,82.89,189.933,171.859c0,117.687-65.43,205.612-161.885,205.612c-32.377,0-62.857-17.507-73.284-37.4
	c0,0-17.417,69.121-21.096,82.477c-6.366,23.121-18.831,46.242-30.2,64.264c26.979,7.964,55.485,12.306,85.023,12.306
	c165.679,0,299.986-134.326,299.986-300.018C599.998,134.327,465.69,0,300.012,0z"/>
</svg>
