<?xml version="1.0" encoding="utf-8"?>
<!-- Generator: Adobe Illustrator 16.2.1, SVG Export Plug-In . SVG Version: 6.00 Build 0)  -->
<!DOCTYPE svg PUBLIC "-//W3C//DTD SVG 1.1//EN" "http://www.w3.org/Graphics/SVG/1.1/DTD/svg11.dtd">
<svg version="1.1" id="Layer_1" xmlns="http://www.w3.org/2000/svg" xmlns:xlink="http://www.w3.org/1999/xlink" x="0px" y="0px"
	 width="500px" height="500px" viewBox="0 0 500 500" enable-background="new 0 0 500 500" xml:space="preserve">
<g>
	<path fill="#6E6E6E" d="M255.841,160.222c-50.539,0-91.653,41.115-91.653,91.654s41.115,91.653,91.653,91.653
		c50.533,0,91.647-41.114,91.647-91.653S306.374,160.222,255.841,160.222z M255.841,327.202c-41.606,0-75.333-33.727-75.333-75.326
		c0-41.6,33.727-75.326,75.333-75.326c41.601,0,75.333,33.726,75.333,75.326C331.174,293.476,297.441,327.202,255.841,327.202z"/>
	<path fill="#6E6E6E" d="M249.083,0C111.518,0,0,111.518,0,249.083c0,137.572,111.518,249.089,249.083,249.089
		c137.572,0,249.089-111.518,249.089-249.089C498.173,111.518,386.655,0,249.083,0z M123,215.603c0,12.28,0,23.609-13,23.609
		v105.157c0,7.477-6.047,13.534-12.59,13.534c-6.531,0-13.41-6.058-13.41-13.534V239.211c-13,0-13-11.329-13-23.609v-43.989
		c0-12.287,0-22.474,13-25.777v66.558c0,1.866,1.127,3.379,3,3.379c1.872,0,3-1.513,3-3.379v-67.629v-0.044
		c0-0.006,3.272,0.006,6.5,0.019c3.228-0.013,6.5-0.025,6.5-0.019v0.044v67.629c0,1.866,1.628,3.379,3.5,3.379s3.5-1.513,3.5-3.379
		v-66.558c13,3.303,13,13.491,13,25.777V215.603z M255.841,358.76c-58.936,0-106.877-47.948-106.877-106.884
		c0-58.936,47.942-106.878,106.877-106.878c58.93,0,106.872,47.942,106.872,106.878C362.713,310.812,314.771,358.76,255.841,358.76z
		 M420,202.238v13.535v128.595c0,7.477-3.457,13.534-10,13.534s-10-6.058-10-13.534v-74.45c-13-13.812-16.119-19.032-16.119-53.3
		c0-34.262,15.06-71.91,24.919-71.91c9.847,0,11.2,12.123,11.2,27.076V202.238z"/>
</g>
</svg>
