<?xml version="1.0" encoding="utf-8"?>
<!-- Generator: Adobe Illustrator 16.2.1, SVG Export Plug-In . SVG Version: 6.00 Build 0)  -->
<!DOCTYPE svg PUBLIC "-//W3C//DTD SVG 1.1//EN" "http://www.w3.org/Graphics/SVG/1.1/DTD/svg11.dtd">
<svg version="1.1" id="Layer_1" xmlns="http://www.w3.org/2000/svg" xmlns:xlink="http://www.w3.org/1999/xlink" x="0px" y="0px"
	 width="500px" height="500px" viewBox="0 0 500 500" enable-background="new 0 0 500 500" xml:space="preserve">
<path fill="#404040" d="M483.484,187.075H311.926V15.516c0-8.605-6.991-15.596-15.597-15.596h-93.578
	c-8.605,0-15.596,6.991-15.596,15.596v171.559H15.596C6.991,187.075,0,194.065,0,202.671v93.577c0,8.605,6.991,15.597,15.596,15.597
	h171.559v171.56c0,8.605,6.991,15.596,15.596,15.596h93.578c8.605,0,15.597-6.99,15.597-15.596v-171.56h171.559
	c8.605,0,15.596-6.991,15.596-15.597v-93.577C499.08,194.065,492.09,187.075,483.484,187.075z"/>
</svg>
