<?xml version="1.0" encoding="utf-8"?>
<!-- Generator: Adobe Illustrator 16.2.1, SVG Export Plug-In . SVG Version: 6.00 Build 0)  -->
<!DOCTYPE svg PUBLIC "-//W3C//DTD SVG 1.1//EN" "http://www.w3.org/Graphics/SVG/1.1/DTD/svg11.dtd">
<svg version="1.1" id="Layer_1" xmlns="http://www.w3.org/2000/svg" xmlns:xlink="http://www.w3.org/1999/xlink" x="0px" y="0px"
	 width="148.853px" height="180px" viewBox="0 0 148.853 180" enable-background="new 0 0 148.853 180" xml:space="preserve">
<path fill="#828383" d="M74.429,0C33.323,0,0,33.323,0,74.426c0,20.683,8.442,39.39,22.061,52.879
	c40.313,40.044,52.714,52.363,52.714,52.363l52.064-52.41c13.591-13.482,22.014-32.17,22.014-52.832
	C148.853,33.323,115.528,0,74.429,0z M74.429,88.345c-7.692,0-13.923-6.231-13.923-13.917c0-7.688,6.231-13.921,13.923-13.921
	c7.685,0,13.915,6.233,13.915,13.921C88.344,82.113,82.114,88.345,74.429,88.345z"/>
</svg>
