<?xml version="1.0" encoding="utf-8"?>
<!-- Generator: Adobe Illustrator 16.2.1, SVG Export Plug-In . SVG Version: 6.00 Build 0)  -->
<!DOCTYPE svg PUBLIC "-//W3C//DTD SVG 1.1//EN" "http://www.w3.org/Graphics/SVG/1.1/DTD/svg11.dtd">
<svg version="1.1" id="Layer_1" xmlns="http://www.w3.org/2000/svg" xmlns:xlink="http://www.w3.org/1999/xlink" x="0px" y="0px"
	 width="180px" height="177.742px" viewBox="0 0 180 177.742" enable-background="new 0 0 180 177.742" xml:space="preserve">
<path fill="#999999" d="M178.269,7.485c-7.853-15.112-27.676-4.99-35.926,4.43c-1.758,2.007-3.538,4.222-5.288,6.574
	c-3.937,5.763-9.115,14.605-11.918,20.809c-1.596,3.978-2.784,7.975-3.347,11.845c-0.125,0.854,0.2,1.555,0.714,2.033
	c0.293,0.635,0.906,1.066,1.854,0.944c4.743-0.614,9.568-2.337,14.306-4.561c0.363,1.293,0.573,2.658,0.573,4.072
	c0,8.225-6.666,14.896-14.893,14.896c-8.224,0-14.894-6.671-14.894-14.896c0-8.042,6.374-14.571,14.341-14.865
	c2.653-5.877,7.418-14.103,11.29-19.928L99.404,18.88c-8.208,0-19.668,4.745-25.474,10.551L4.584,98.777
	c-5.803,5.803-5.803,15.3,0,21.103l53.509,53.509c5.804,5.804,15.302,5.804,21.103,0l69.35-69.342
	c5.801-5.808,10.555-17.271,10.555-25.476v-40.67C168.142,32.491,184.803,20.046,178.269,7.485z M159.049,32.931
	c-0.455-7.804-6.96-14.051-14.876-14.051c0,0-5.681,6.869-12.967,21.551c2.31,1.203,4.267,2.986,5.666,5.167
	c-3.441,1.68-6.94,3.074-10.351,3.807c0.745-3.245,3.366-9.587,3.38-9.582c2.676-5.871,9.944-20.932,21.072-30.255
	c6.187-5.186,22.599-10.334,23.986,2.613C175.926,21.211,166.987,28.081,159.049,32.931z"/>
</svg>
