<?xml version="1.0" encoding="utf-8"?>
<!-- Generator: Adobe Illustrator 16.2.1, SVG Export Plug-In . SVG Version: 6.00 Build 0)  -->
<!DOCTYPE svg PUBLIC "-//W3C//DTD SVG 1.1//EN" "http://www.w3.org/Graphics/SVG/1.1/DTD/svg11.dtd">
<svg version="1.1" id="Layer_1" xmlns="http://www.w3.org/2000/svg" xmlns:xlink="http://www.w3.org/1999/xlink" x="0px" y="0px"
	 width="500px" height="500px" viewBox="0 0 500 500" enable-background="new 0 0 500 500" xml:space="preserve">
<path fill="#666666" d="M249.602,14.612c129.575,0,234.997,105.416,234.997,234.991c0,129.575-105.422,234.992-234.997,234.992
	c-129.577,0-234.992-105.417-234.992-234.992C14.61,120.028,120.025,14.612,249.602,14.612 M249.602,0
	C111.756,0-0.003,111.753-0.003,249.604c0,137.852,111.759,249.604,249.604,249.604c137.857,0,249.604-111.753,249.604-249.604
	C499.205,111.753,387.459,0,249.602,0L249.602,0z"/>
<g>
	<path fill="#666666" d="M167.421,123.611c4.831-4.267,10.129-8.313,15.879-12.149c5.762-3.843,11.979-7.173,18.651-10.022
		c6.686-2.837,13.929-5.084,21.754-6.711c7.806-1.64,16.271-2.457,25.363-2.457c12.359,0,23.629,1.71,33.791,5.116
		c10.16,3.413,18.867,8.281,26.115,14.606c7.243,6.325,12.866,13.966,16.843,22.919c3.975,8.953,5.963,18.975,5.963,30.061
		c0,10.794-1.563,20.146-4.685,28.028c-3.129,7.889-7.073,14.746-11.827,20.571c-4.773,5.825-9.916,10.871-15.461,15.138
		c-5.546,4.26-10.801,8.281-15.778,12.042c-4.977,3.767-9.274,7.465-12.896,11.086c-3.622,3.628-5.793,7.711-6.503,12.257
		l-4.9,31.126h-36.025l-3.627-34.746c-0.146-0.71-0.222-1.311-0.222-1.812c0-0.5,0-1.101,0-1.811c0-6.256,1.57-11.694,4.698-16.31
		c3.128-4.622,7.034-8.959,11.726-13.004c4.685-4.052,9.731-7.99,15.131-11.839c5.408-3.831,10.447-7.99,15.146-12.46
		c4.684-4.482,8.584-9.56,11.726-15.246c3.114-5.686,4.685-12.365,4.685-20.045c0-5.109-0.963-9.693-2.881-13.745
		c-1.918-4.052-4.578-7.528-7.996-10.447c-3.407-2.912-7.496-5.147-12.251-6.717c-4.768-1.564-9.915-2.343-15.455-2.343
		c-8.104,0-14.967,0.893-20.577,2.672c-5.61,1.767-10.37,3.761-14.283,5.958c-3.913,2.209-7.218,4.198-9.915,5.977
		c-2.704,1.779-5.116,2.66-7.244,2.66c-5.122,0-8.82-2.134-11.086-6.395L167.421,123.611z M207.714,374.949
		c0-4.398,0.823-8.59,2.45-12.573c1.627-3.982,3.906-7.388,6.825-10.236c2.906-2.838,6.356-5.117,10.338-6.825
		c3.977-1.697,8.237-2.553,12.789-2.553c4.407,0,8.598,0.855,12.573,2.553c3.983,1.708,7.396,3.987,10.239,6.825
		c2.842,2.849,5.108,6.254,6.818,10.236c1.71,3.983,2.558,8.175,2.558,12.573c0,4.546-0.848,8.782-2.558,12.688
		s-3.977,7.281-6.818,10.124c-2.843,2.842-6.256,5.084-10.239,6.711c-3.975,1.64-8.166,2.457-12.573,2.457
		c-4.552,0-8.812-0.817-12.789-2.457c-3.982-1.627-7.433-3.869-10.338-6.711c-2.919-2.843-5.198-6.218-6.825-10.124
		S207.714,379.495,207.714,374.949z"/>
</g>
</svg>
