<?xml version="1.0" encoding="utf-8"?>
<!-- Generator: Adobe Illustrator 16.2.1, SVG Export Plug-In . SVG Version: 6.00 Build 0)  -->
<!DOCTYPE svg PUBLIC "-//W3C//DTD SVG 1.1//EN" "http://www.w3.org/Graphics/SVG/1.1/DTD/svg11.dtd">
<svg version="1.1" id="Layer_1" xmlns="http://www.w3.org/2000/svg" xmlns:xlink="http://www.w3.org/1999/xlink" x="0px" y="0px"
	 width="500px" height="500px" viewBox="0 0 500 500" enable-background="new 0 0 500 500" xml:space="preserve">
<path fill="#666666" d="M250,1.5C112.759,1.5,1.5,112.759,1.5,250S112.759,498.5,250,498.5S498.5,387.241,498.5,250
	S387.241,1.5,250,1.5z M270.051,387.424c-1.695,3.889-3.959,7.249-6.782,10.079c-2.837,2.83-6.228,5.062-10.192,6.682
	c-3.965,1.632-8.138,2.445-12.524,2.445c-4.526,0-8.774-0.813-12.733-2.445c-3.958-1.62-7.4-3.852-10.287-6.682
	c-2.906-2.83-5.175-6.19-6.795-10.079c-1.626-3.889-2.446-8.106-2.446-12.632c0-4.381,0.82-8.554,2.446-12.519
	c1.62-3.965,3.889-7.355,6.795-10.192c2.887-2.823,6.329-5.093,10.287-6.795c3.958-1.688,8.207-2.54,12.733-2.54
	c4.387,0,8.56,0.852,12.524,2.54c3.965,1.702,7.355,3.972,10.192,6.795c2.823,2.837,5.087,6.228,6.782,10.192
	c1.702,3.965,2.546,8.138,2.546,12.519C272.597,379.317,271.753,383.535,270.051,387.424z M327.146,193.649
	c-3.113,7.854-7.034,14.68-11.774,20.479c-4.746,5.799-9.871,10.823-15.393,15.071c-5.516,4.242-10.753,8.245-15.708,11.989
	c-4.954,3.75-9.228,7.432-12.833,11.037c-3.605,3.612-5.774,7.678-6.474,12.203l-4.885,30.987h-35.866l-3.605-34.593
	c-0.145-0.705-0.221-1.305-0.221-1.803s0-1.096,0-1.803c0-6.227,1.557-11.642,4.671-16.237c3.114-4.601,7.009-8.919,11.673-12.947
	c4.671-4.034,9.694-7.955,15.071-11.787c5.377-3.813,10.4-7.955,15.071-12.405c4.671-4.463,8.554-9.518,11.674-15.178
	c3.101-5.661,4.664-12.311,4.664-19.956c0-5.087-0.952-9.65-2.861-13.685c-1.917-4.034-4.564-7.495-7.961-10.4
	c-3.398-2.899-7.464-5.125-12.197-6.688c-4.746-1.557-9.871-2.332-15.393-2.332c-8.068,0-14.895,0.889-20.479,2.66
	c-5.591,1.759-10.331,3.744-14.227,5.932c-3.889,2.2-7.179,4.179-9.864,5.95c-2.691,1.771-5.093,2.647-7.217,2.647
	c-5.093,0-8.774-2.124-11.031-6.366l-13.798-21.86c4.81-4.249,10.079-8.276,15.809-12.096c5.729-3.826,11.919-7.142,18.569-9.978
	c6.65-2.824,13.867-5.062,21.652-6.682c7.778-1.633,16.2-2.446,25.25-2.446c12.311,0,23.524,1.702,33.647,5.093
	c10.11,3.397,18.783,8.245,25.994,14.542s12.809,13.905,16.767,22.818c3.959,8.913,5.944,18.891,5.944,29.928
	C331.816,176.491,330.26,185.801,327.146,193.649z"/>
</svg>
