<?xml version="1.0" encoding="utf-8"?>
<!-- Generator: Adobe Illustrator 16.2.1, SVG Export Plug-In . SVG Version: 6.00 Build 0)  -->
<!DOCTYPE svg PUBLIC "-//W3C//DTD SVG 1.1//EN" "http://www.w3.org/Graphics/SVG/1.1/DTD/svg11.dtd">
<svg version="1.1" id="Layer_1" xmlns="http://www.w3.org/2000/svg" xmlns:xlink="http://www.w3.org/1999/xlink" x="0px" y="0px"
	 width="500px" height="500px" viewBox="0 0 500 500" enable-background="new 0 0 500 500" xml:space="preserve">
<path fill="#0093C9" d="M250.003,80.951c-92.862,0-168.143,75.278-168.143,168.14s75.281,168.141,168.143,168.141
	c92.859,0,168.143-75.279,168.143-168.141S342.862,80.951,250.003,80.951z M330.246,131.177c0.655-0.84,1.472-1.586,2.457-2.158
	c3.054-1.754,6.738-1.418,9.386,0.572c0.035,0.02,0.055,0.046,0.082,0.067c9.833,8.066,26.988,23.842,38.536,43.847
	c11.359,19.668,16.441,41.958,18.592,54.621c0.054,0.383,0.136,0.807,0.195,1.164c0.283,3.193-1.244,6.419-4.207,8.127
	c-0.849,0.497-1.749,0.779-2.656,0.961c-1.075,0.208-2.157,0.201-3.213-0.007l-105.188,0.007l-2.516-0.007
	c-2.498-0.356-4.826-1.782-6.188-4.134c-1.361-2.366-1.435-5.088-0.498-7.428l1.261-2.191l52.865-91.551L330.246,131.177z
	 M192.552,109.936c0.03-0.021,0.063-0.027,0.1-0.034c11.896-4.477,34.138-11.448,57.23-11.448
	c22.72-0.006,44.563,6.729,56.608,11.206c0.36,0.141,0.764,0.282,1.103,0.403c2.907,1.358,4.934,4.289,4.934,7.717
	c0.004,0.98-0.197,1.901-0.49,2.775c-0.366,1.036-0.911,1.97-1.617,2.784l-52.587,91.094l-1.264,2.178
	c-1.56,1.982-3.961,3.287-6.676,3.293c-2.729-0.006-5.121-1.304-6.685-3.287l-1.263-2.185l-52.854-91.559l-1.092-1.888
	c-0.403-0.988-0.631-2.071-0.638-3.206C187.366,114.251,189.504,111.233,192.552,109.936z M100.782,228.919
	c2.071-12.543,7.152-35.284,18.701-55.288c11.353-19.682,28.111-35.229,38.009-43.416c0.302-0.243,0.625-0.525,0.901-0.753
	c2.627-1.842,6.18-2.131,9.148-0.417c0.85,0.491,1.553,1.123,2.161,1.815c0.712,0.834,1.25,1.774,1.6,2.789l52.596,91.088
	l1.26,2.184c0.935,2.339,0.864,5.075-0.487,7.428c-1.368,2.359-3.694,3.784-6.191,4.147h-2.524l-105.721-0.006h-2.177
	c-1.062-0.148-2.115-0.484-3.1-1.049c-3.052-1.767-4.598-5.128-4.194-8.416C100.762,228.986,100.769,228.959,100.782,228.919z
	 M169.963,366.999c-0.658,0.848-1.478,1.593-2.459,2.164c-3.052,1.762-6.739,1.419-9.387-0.578c-0.027-0.02-0.054-0.039-0.078-0.066
	c-9.827-8.06-26.984-23.836-38.529-43.841c-11.37-19.668-16.456-41.957-18.596-54.62c-0.054-0.384-0.147-0.808-0.201-1.164
	c-0.282-3.193,1.247-6.42,4.211-8.127c0.85-0.49,1.751-0.779,2.649-0.967c1.082-0.195,2.164-0.189,3.216,0.013l105.187-0.013
	l2.524,0.013c2.49,0.356,4.823,1.782,6.191,4.134c1.354,2.366,1.425,5.088,0.487,7.428l-1.257,2.191l-52.867,91.551L169.963,366.999
	z M307.337,388.939c-0.029,0.013-0.067,0.021-0.097,0.041c-11.897,4.47-34.137,11.44-57.237,11.44
	c-22.709,0-44.569-6.735-56.604-11.212c-0.36-0.135-0.759-0.276-1.099-0.405c-2.911-1.357-4.94-4.288-4.94-7.709
	c0-0.98,0.198-1.902,0.504-2.775c0.356-1.036,0.901-1.978,1.606-2.783l52.588-91.102l1.261-2.178
	c1.563-1.982,3.959-3.287,6.681-3.287c2.727,0,5.12,1.305,6.683,3.287l1.26,2.178l52.856,91.564l1.094,1.89
	c0.402,0.988,0.634,2.07,0.634,3.206C312.526,384.617,310.39,387.636,307.337,388.939z M399.435,269.257
	c-2.077,12.543-7.166,35.289-18.715,55.294c-11.346,19.669-28.11,35.229-38.009,43.416c-0.292,0.243-0.622,0.518-0.9,0.746
	c-2.629,1.842-6.181,2.131-9.148,0.424c-0.85-0.491-1.55-1.122-2.153-1.82c-0.72-0.829-1.259-1.77-1.607-2.784l-52.599-91.095
	l-1.253-2.178c-0.938-2.346-0.868-5.074,0.494-7.427c1.357-2.367,3.683-3.792,6.184-4.148h2.521H389.97h2.185
	c1.056,0.142,2.103,0.484,3.092,1.055c3.051,1.769,4.598,5.123,4.201,8.41C399.447,269.19,399.435,269.224,399.435,269.257z"/>
</svg>
