<?xml version="1.0" encoding="utf-8"?>
<!-- Generator: Adobe Illustrator 16.2.1, SVG Export Plug-In . SVG Version: 6.00 Build 0)  -->
<!DOCTYPE svg PUBLIC "-//W3C//DTD SVG 1.1//EN" "http://www.w3.org/Graphics/SVG/1.1/DTD/svg11.dtd">
<svg version="1.1" id="Layer_1" xmlns="http://www.w3.org/2000/svg" xmlns:xlink="http://www.w3.org/1999/xlink" x="0px" y="0px"
	 width="500px" height="500px" viewBox="0 0 500 500" enable-background="new 0 0 500 500" xml:space="preserve">
<path fill-rule="evenodd" clip-rule="evenodd" fill="#6E6E6E" d="M249.998,0C111.931,0,0,111.928,0,250.001
	s111.931,250.001,249.998,250.001C388.072,500.003,500,388.075,500,250.001S388.072,0,249.998,0z M320.994,160.138l41.153-41.94
	c5.052-5.15,12.852-5.69,17.409-1.211c4.563,4.479,4.166,12.279-0.886,17.429l-41.159,41.947
	c-5.052,5.137-12.839,5.684-17.409,1.204C315.545,173.093,315.942,165.294,320.994,160.138z M233,80.28
	c0-7.213,7.107-13.06,13.5-13.06c6.394,0,13.5,5.847,13.5,13.06v58.764c0,7.207-7.106,13.06-13.5,13.06
	c-6.393,0-13.5-5.853-13.5-13.06V80.28z M120.108,117.325c4.515-4.531,12.312-4.069,17.422,1.022l41.627,41.471
	c5.111,5.091,5.593,12.884,1.081,17.416c-4.512,4.525-12.312,4.076-17.416-1.016l-41.634-41.478
	C116.082,129.649,115.596,121.856,120.108,117.325z M67.224,250c0-6.394,5.847-10,13.057-10h58.767c7.21,0,13.057,3.606,13.057,10
	s-5.846,10-13.057,10H80.28C73.07,260,67.224,256.394,67.224,250z M179.451,335.093l-42.604,40.469
	c-5.231,4.968-13.038,5.241-17.442,0.6c-4.401-4.629-3.737-12.416,1.494-17.377l42.604-40.476c5.231-4.967,13.031-5.24,17.438-0.599
	C185.343,322.346,184.679,330.126,179.451,335.093z M260,419.723c0,7.207-7.106,13.06-13.5,13.06c-6.393,0-13.5-5.853-13.5-13.06
	v-58.764c0-7.207,7.107-13.06,13.5-13.06c6.394,0,13.5,5.853,13.5,13.06V419.723z M249.998,326.767
	c-43.412,0-78.607-35.189-78.607-78.607c0-43.418,35.195-78.607,78.607-78.607c43.425,0,78.62,35.189,78.62,78.607
	C328.618,291.577,293.423,326.767,249.998,326.767z M380.533,376.239c-4.415,4.629-12.228,4.343-17.436-0.645l-42.514-40.573
	c-5.208-4.98-5.859-12.761-1.451-17.383c4.42-4.629,12.22-4.35,17.441,0.638l42.5,40.573
	C384.296,363.83,384.947,371.61,380.533,376.239z M419.726,260h-58.764c-7.213,0-13.06-3.606-13.06-10s5.847-10,13.06-10h58.764
	c7.214,0,13.06,3.606,13.06,10S426.939,260,419.726,260z"/>
</svg>
